<?xml version="1.0" encoding="UTF-8" standalone="no" ?>
<!DOCTYPE svg PUBLIC "-//W3C//DTD SVG 1.1//EN" "http://www.w3.org/Graphics/SVG/1.1/DTD/svg11.dtd">
<svg xmlns="http://www.w3.org/2000/svg" xmlns:xlink="http://www.w3.org/1999/xlink" version="1.1" width="400" height="400" viewBox="0 0 400 400" xml:space="preserve">
<desc>Created with Fabric.js 3.6.2</desc>
<defs>
</defs>
<g transform="matrix(4.03 0 0 4.03 200 200)" id="Layer_1"  >
<path style="stroke: none; stroke-width: 1; stroke-dasharray: none; stroke-linecap: butt; stroke-dashoffset: 0; stroke-linejoin: miter; stroke-miterlimit: 4; fill: rgb(255,255,255); fill-rule: nonzero; opacity: 1;"  transform=" translate(-28.21, -29.62)" d="M 43.414 4.831 H 13 c -5.283 0 -9.581 4.297 -9.581 9.58 v 10.12 v 20.295 c 0 5.283 4.298 9.58 9.581 9.58 h 30.415 c 5.283 0 9.58 -4.297 9.58 -9.58 V 24.53 v -10.12 C 52.994 9.127 48.697 4.831 43.414 4.831 z M 46.162 10.544 l 1.096 -0.004 v 1.091 v 7.312 l -8.375 0.027 l -0.029 -8.402 L 46.162 10.544 z M 21.131 24.53 c 1.588 -2.197 4.164 -3.638 7.076 -3.638 s 5.488 1.441 7.074 3.638 c 1.033 1.434 1.652 3.188 1.652 5.088 c 0 4.811 -3.918 8.725 -8.727 8.725 c -4.812 0 -8.726 -3.914 -8.726 -8.725 C 19.481 27.718 20.098 25.964 21.131 24.53 z M 48.164 44.825 c 0 2.621 -2.131 4.75 -4.75 4.75 H 13 c -2.62 0 -4.751 -2.129 -4.751 -4.75 V 24.53 h 7.4 c -0.639 1.572 -0.998 3.289 -0.998 5.088 c 0 7.473 6.08 13.557 13.556 13.557 c 7.475 0 13.555 -6.084 13.555 -13.557 c 0 -1.799 -0.361 -3.516 -1 -5.088 h 7.402 V 44.825 z" stroke-linecap="round" />
</g>
</svg>