<?xml version="1.0" encoding="UTF-8"?>
<svg xmlns="http://www.w3.org/2000/svg" xmlns:xlink="http://www.w3.org/1999/xlink" viewBox="0 0 100 100" width="100px" height="100px">
<g id="surface112672491">
<path style=" stroke:none;fill-rule:nonzero;fill:rgb(100%,100%,100%);fill-opacity:1;" d="M 50 93 C 26.25 93 7 73.75 7 50 C 7 26.25 26.25 7 50 7 C 73.75 7 93 26.25 93 50 C 93 73.75 73.75 93 50 93 Z M 50 93 "/>
<path style=" stroke:none;fill-rule:nonzero;fill:rgb(46.666667%,87.058824%,8.627451%);fill-opacity:1;" d="M 50 5.71875 C 25.542969 5.71875 5.71875 25.542969 5.71875 50 C 5.71875 74.457031 25.542969 94.28125 50 94.28125 C 74.457031 94.28125 94.28125 74.457031 94.28125 50 C 94.28125 25.542969 74.457031 5.71875 50 5.71875 Z M 44.890625 67.03125 L 26.15625 48.296875 L 29.5625 43.1875 L 44.890625 53.40625 L 68.660156 32.96875 L 73.84375 38.078125 Z M 44.890625 67.03125 "/>
</g>
</svg>
