<svg width="180" height="180" viewBox="0 0 180 180" fill="none" xmlns="http://www.w3.org/2000/svg">
<path fill-rule="evenodd" clip-rule="evenodd" d="M89.8025 59.6081C72.7404 59.6082 58.9089 73.4397 58.9089 90.5017L44.6504 90.5017C44.6504 65.5649 64.8657 45.3496 89.8025 45.3496C114.739 45.3496 134.955 65.5649 134.955 90.5017L120.696 90.5017C120.696 73.4396 106.865 59.6081 89.8025 59.6081Z" fill="#C4C4C4"/>
<path fill-rule="evenodd" clip-rule="evenodd" d="M89.8025 120.709C106.865 120.709 120.696 107.185 120.696 90.5017L134.955 90.5017C134.955 114.884 114.739 134.65 89.8025 134.65C64.8657 134.65 44.6504 114.884 44.6504 90.5017L58.909 90.5017C58.909 107.185 72.7405 120.709 89.8025 120.709Z" fill="url(#paint0_linear_10099_33)"/>
<defs>
<linearGradient id="paint0_linear_10099_33" x1="124.001" y1="134.65" x2="45.5396" y2="121.231" gradientUnits="userSpaceOnUse">
<stop stop-color="#DF5950"/>
<stop offset="1" stop-color="#451046"/>
</linearGradient>
</defs>
</svg>
